<mxfile host="app.diagrams.net" modified="2021-10-28T12:55:28.167Z" agent="5.0 (X11; Linux x86_64) AppleWebKit/537.36 (KHTML, like Gecko) Chrome/93.0.4577.63 Safari/537.36" etag="v0UvDDTCSMzI72xWz9Zo" version="15.6.1" type="github">
  <diagram id="hZxWV2g4lv3NsSRAilPI" name="Page-1">
    <mxGraphModel dx="981" dy="1675" grid="1" gridSize="10" guides="1" tooltips="1" connect="1" arrows="1" fold="1" page="1" pageScale="1" pageWidth="827" pageHeight="1169" math="0" shadow="0">
      <root>
        <mxCell id="0" />
        <mxCell id="1" parent="0" />
        <mxCell id="zXe6irOBKq1R8roTCVw2-76" value="&lt;pre class=&quot;lang-yaml&quot; translate=&quot;no&quot; dir=&quot;ltr&quot; style=&quot;box-sizing: inherit ; margin-top: 0px ; margin-bottom: 0px ; overflow-x: auto ; position: relative ; direction: ltr ; text-align: left&quot;&gt;&lt;code dir=&quot;ltr&quot; style=&quot;box-sizing: inherit ; background: 0px center ; padding: 0px ; word-break: normal ; direction: ltr&quot;&gt;&lt;span class=&quot;kwd&quot; style=&quot;box-sizing: inherit&quot;&gt;apiVersion: &lt;/span&gt;&lt;span class=&quot;pln&quot; style=&quot;box-sizing: inherit&quot;&gt;apps/v1&lt;br style=&quot;box-sizing: inherit&quot;&gt;&lt;/span&gt;&lt;span class=&quot;kwd&quot; style=&quot;box-sizing: inherit&quot;&gt;kind: &lt;/span&gt;&lt;span class=&quot;pln&quot; style=&quot;box-sizing: inherit&quot;&gt;Deployment&lt;br style=&quot;box-sizing: inherit&quot;&gt;&lt;/span&gt;&lt;span class=&quot;kwd&quot; style=&quot;box-sizing: inherit&quot;&gt;metadata:&lt;br style=&quot;box-sizing: inherit&quot;&gt;&lt;/span&gt;&lt;span class=&quot;pln&quot; style=&quot;box-sizing: inherit&quot;&gt;&amp;nbsp; &lt;/span&gt;&lt;span class=&quot;kwd&quot; style=&quot;box-sizing: inherit&quot;&gt;name: &lt;/span&gt;&lt;span class=&quot;pln&quot; style=&quot;box-sizing: inherit&quot;&gt;nginx&lt;br style=&quot;box-sizing: inherit&quot;&gt;&amp;nbsp; &lt;/span&gt;&lt;span class=&quot;kwd&quot; style=&quot;box-sizing: inherit&quot;&gt;namespace: &lt;/span&gt;&lt;span class=&quot;pln&quot; style=&quot;box-sizing: inherit&quot;&gt;default&lt;br style=&quot;box-sizing: inherit&quot;&gt;&lt;/span&gt;&lt;span class=&quot;kwd&quot; style=&quot;box-sizing: inherit&quot;&gt;spec:&lt;br style=&quot;box-sizing: inherit&quot;&gt;&lt;/span&gt;&lt;span class=&quot;pln&quot; style=&quot;box-sizing: inherit&quot;&gt;&amp;nbsp; &lt;/span&gt;&lt;span class=&quot;kwd&quot; style=&quot;box-sizing: inherit&quot;&gt;replicas: 6&lt;/span&gt;&lt;span class=&quot;pln&quot; style=&quot;box-sizing: inherit&quot;&gt;&lt;br style=&quot;box-sizing: inherit&quot;&gt;&amp;nbsp; &amp;nbsp; &lt;/span&gt;&lt;span class=&quot;kwd&quot; style=&quot;box-sizing: inherit&quot;&gt;spec:&lt;br style=&quot;box-sizing: inherit&quot;&gt;&lt;/span&gt;&lt;span class=&quot;pln&quot; style=&quot;box-sizing: inherit&quot;&gt;&amp;nbsp; &amp;nbsp; &amp;nbsp; &lt;/span&gt;&lt;span class=&quot;kwd&quot; style=&quot;box-sizing: inherit&quot;&gt;containers:&lt;br style=&quot;box-sizing: inherit&quot;&gt;&lt;/span&gt;&lt;span class=&quot;pln&quot; style=&quot;box-sizing: inherit&quot;&gt;&amp;nbsp; &amp;nbsp; &amp;nbsp; &lt;/span&gt;&lt;span class=&quot;pun&quot; style=&quot;box-sizing: inherit&quot;&gt;-&lt;/span&gt;&lt;span class=&quot;pln&quot; style=&quot;box-sizing: inherit&quot;&gt; &lt;/span&gt;&lt;span class=&quot;kwd&quot; style=&quot;box-sizing: inherit&quot;&gt;name: &lt;/span&gt;&lt;span class=&quot;pln&quot; style=&quot;box-sizing: inherit&quot;&gt;nginx&lt;br style=&quot;box-sizing: inherit&quot;&gt;&amp;nbsp; &amp;nbsp; &amp;nbsp; &amp;nbsp; &lt;/span&gt;&lt;span class=&quot;kwd&quot; style=&quot;box-sizing: inherit&quot;&gt;image: &lt;/span&gt;&lt;span class=&quot;pln&quot; style=&quot;box-sizing: inherit&quot;&gt;nginx&lt;/span&gt;&lt;span class=&quot;pun&quot; style=&quot;box-sizing: inherit&quot;&gt;:&lt;/span&gt;&lt;span class=&quot;pln&quot; style=&quot;box-sizing: inherit&quot;&gt;1.7.9&lt;br style=&quot;box-sizing: inherit&quot;&gt;&amp;nbsp; &amp;nbsp; &amp;nbsp; &amp;nbsp; &lt;/span&gt;&lt;span class=&quot;kwd&quot; style=&quot;box-sizing: inherit&quot;&gt;ports:&lt;br style=&quot;box-sizing: inherit&quot;&gt;&lt;/span&gt;&lt;span class=&quot;pln&quot; style=&quot;box-sizing: inherit&quot;&gt;&amp;nbsp; &amp;nbsp; &amp;nbsp; &amp;nbsp; &lt;/span&gt;&lt;span class=&quot;pun&quot; style=&quot;box-sizing: inherit&quot;&gt;-&lt;/span&gt;&lt;span class=&quot;pln&quot; style=&quot;box-sizing: inherit&quot;&gt; &lt;/span&gt;&lt;span class=&quot;kwd&quot; style=&quot;box-sizing: inherit&quot;&gt;containerPort: &lt;/span&gt;&lt;span class=&quot;pln&quot; style=&quot;box-sizing: inherit&quot;&gt;80&lt;br style=&quot;box-sizing: inherit&quot;&gt;&amp;nbsp; &amp;nbsp; &amp;nbsp; &amp;nbsp; &lt;/span&gt;&lt;span class=&quot;kwd&quot; style=&quot;box-sizing: inherit&quot;&gt;resources:&lt;/span&gt;&lt;span class=&quot;pln&quot; style=&quot;box-sizing: inherit&quot;&gt;&lt;br style=&quot;box-sizing: inherit&quot;&gt;&amp;nbsp; &amp;nbsp; &amp;nbsp; &amp;nbsp; &amp;nbsp; &lt;/span&gt;&lt;span class=&quot;kwd&quot; style=&quot;box-sizing: inherit&quot;&gt;requests:&lt;br style=&quot;box-sizing: inherit&quot;&gt;&lt;/span&gt;&lt;span class=&quot;pln&quot; style=&quot;box-sizing: inherit&quot;&gt;&amp;nbsp; &amp;nbsp; &amp;nbsp; &amp;nbsp; &amp;nbsp; &amp;nbsp; &lt;/span&gt;&lt;span class=&quot;kwd&quot; style=&quot;box-sizing: inherit&quot;&gt;cpu: &lt;/span&gt;&lt;span class=&quot;str&quot; style=&quot;box-sizing: inherit&quot;&gt;&quot;250m&quot;&lt;/span&gt;&lt;/code&gt;&lt;/pre&gt;" style="shape=note;whiteSpace=wrap;html=1;backgroundOutline=1;darkOpacity=0.05;fontSize=8;fillColor=#dae8fc;strokeColor=#6c8ebf;" parent="1" vertex="1">
          <mxGeometry x="440" y="-40" width="150" height="150" as="geometry" />
        </mxCell>
        <mxCell id="zXe6irOBKq1R8roTCVw2-82" value="&lt;pre class=&quot;lang-yaml&quot; translate=&quot;no&quot; dir=&quot;ltr&quot; style=&quot;box-sizing: inherit ; margin-top: 0px ; margin-bottom: 0px ; overflow-x: auto ; position: relative ; direction: ltr ; text-align: left&quot;&gt;apiVersion: v1&lt;br&gt;kind: Service&lt;br&gt;metadata:&lt;br&gt;  name: my-nginx&lt;br&gt;  labels:&lt;br&gt;    run: my-nginx&lt;br&gt;spec:&lt;br&gt;  ports:&lt;br&gt;  - port: 80&lt;br&gt;    protocol: TCP&lt;br&gt;  selector:&lt;br&gt;    run: nginx&lt;br&gt;&lt;/pre&gt;" style="shape=note;whiteSpace=wrap;html=1;backgroundOutline=1;darkOpacity=0.05;fontSize=8;fillColor=#d5e8d4;strokeColor=#82b366;" parent="1" vertex="1">
          <mxGeometry x="440" y="120" width="150" height="160" as="geometry" />
        </mxCell>
        <mxCell id="zXe6irOBKq1R8roTCVw2-85" value="&lt;pre class=&quot;lang-yaml&quot; translate=&quot;no&quot; dir=&quot;ltr&quot; style=&quot;box-sizing: inherit ; margin-top: 0px ; margin-bottom: 0px ; overflow-x: auto ; position: relative ; direction: ltr ; text-align: left&quot;&gt;apiVersion: autoscaling/v1&lt;br/&gt;kind: HorizontalPodAutoscaler&lt;br/&gt;metadata:&lt;br/&gt;  name: nginx&lt;br/&gt;spec:&lt;br/&gt;  scaleTargetRef:&lt;br/&gt;    apiVersion: apps/v1&lt;br/&gt;    kind: Deployment&lt;br/&gt;    name: nginx&lt;br/&gt;  minReplicas: 1&lt;br/&gt;  maxReplicas: 10&lt;br/&gt;  targetCPUUtilizationPercentage: 50&lt;br&gt;&lt;/pre&gt;" style="shape=note;whiteSpace=wrap;html=1;backgroundOutline=1;darkOpacity=0.05;fontSize=8;fillColor=#fff2cc;strokeColor=#d6b656;" parent="1" vertex="1">
          <mxGeometry x="600" y="119" width="180" height="160" as="geometry" />
        </mxCell>
        <mxCell id="zXe6irOBKq1R8roTCVw2-2" value="" style="rounded=0;whiteSpace=wrap;html=1;" parent="1" vertex="1">
          <mxGeometry x="100" y="-40" width="330" height="390" as="geometry" />
        </mxCell>
        <mxCell id="zXe6irOBKq1R8roTCVw2-3" value="" style="rounded=0;whiteSpace=wrap;html=1;" parent="1" vertex="1">
          <mxGeometry x="110" y="110" width="150" height="120" as="geometry" />
        </mxCell>
        <mxCell id="zXe6irOBKq1R8roTCVw2-4" value="" style="rounded=0;whiteSpace=wrap;html=1;" parent="1" vertex="1">
          <mxGeometry x="270" y="110" width="150" height="120" as="geometry" />
        </mxCell>
        <mxCell id="zXe6irOBKq1R8roTCVw2-6" value="Node 0" style="text;html=1;strokeColor=none;fillColor=none;align=center;verticalAlign=middle;whiteSpace=wrap;rounded=0;" parent="1" vertex="1">
          <mxGeometry x="110" y="110" width="60" height="30" as="geometry" />
        </mxCell>
        <mxCell id="zXe6irOBKq1R8roTCVw2-7" value="Node 1" style="text;html=1;strokeColor=none;fillColor=none;align=center;verticalAlign=middle;whiteSpace=wrap;rounded=0;" parent="1" vertex="1">
          <mxGeometry x="270" y="110" width="60" height="30" as="geometry" />
        </mxCell>
        <mxCell id="zXe6irOBKq1R8roTCVw2-50" style="edgeStyle=none;rounded=0;orthogonalLoop=1;jettySize=auto;html=1;exitX=0.75;exitY=1;exitDx=0;exitDy=0;endArrow=none;endFill=0;strokeWidth=1;entryX=0.374;entryY=-0.013;entryDx=0;entryDy=0;entryPerimeter=0;" parent="1" source="zXe6irOBKq1R8roTCVw2-10" target="zXe6irOBKq1R8roTCVw2-22" edge="1">
          <mxGeometry relative="1" as="geometry">
            <mxPoint x="218" y="240" as="targetPoint" />
          </mxGeometry>
        </mxCell>
        <mxCell id="zXe6irOBKq1R8roTCVw2-10" value="" style="rounded=1;whiteSpace=wrap;html=1;" parent="1" vertex="1">
          <mxGeometry x="180" y="130" width="60" height="60" as="geometry" />
        </mxCell>
        <mxCell id="zXe6irOBKq1R8roTCVw2-49" style="edgeStyle=none;rounded=0;orthogonalLoop=1;jettySize=auto;html=1;exitX=0.75;exitY=1;exitDx=0;exitDy=0;entryX=0.3;entryY=0.011;entryDx=0;entryDy=0;entryPerimeter=0;endArrow=none;endFill=0;strokeWidth=1;" parent="1" source="zXe6irOBKq1R8roTCVw2-11" target="zXe6irOBKq1R8roTCVw2-22" edge="1">
          <mxGeometry relative="1" as="geometry" />
        </mxCell>
        <mxCell id="zXe6irOBKq1R8roTCVw2-11" value="" style="rounded=1;whiteSpace=wrap;html=1;" parent="1" vertex="1">
          <mxGeometry x="157.5" y="140" width="60" height="60" as="geometry" />
        </mxCell>
        <mxCell id="zXe6irOBKq1R8roTCVw2-48" style="edgeStyle=none;rounded=0;orthogonalLoop=1;jettySize=auto;html=1;exitX=0.5;exitY=1;exitDx=0;exitDy=0;entryX=0.186;entryY=0.02;entryDx=0;entryDy=0;entryPerimeter=0;endArrow=none;endFill=0;strokeWidth=1;" parent="1" source="zXe6irOBKq1R8roTCVw2-12" target="zXe6irOBKq1R8roTCVw2-22" edge="1">
          <mxGeometry relative="1" as="geometry" />
        </mxCell>
        <mxCell id="zXe6irOBKq1R8roTCVw2-12" value="nginx" style="rounded=1;whiteSpace=wrap;html=1;" parent="1" vertex="1">
          <mxGeometry x="137.5" y="150" width="60" height="60" as="geometry" />
        </mxCell>
        <mxCell id="zXe6irOBKq1R8roTCVw2-53" style="edgeStyle=none;rounded=0;orthogonalLoop=1;jettySize=auto;html=1;exitX=0.75;exitY=1;exitDx=0;exitDy=0;entryX=0.89;entryY=-0.016;entryDx=0;entryDy=0;entryPerimeter=0;endArrow=none;endFill=0;strokeWidth=1;" parent="1" source="zXe6irOBKq1R8roTCVw2-13" target="zXe6irOBKq1R8roTCVw2-22" edge="1">
          <mxGeometry relative="1" as="geometry" />
        </mxCell>
        <mxCell id="zXe6irOBKq1R8roTCVw2-13" value="" style="rounded=1;whiteSpace=wrap;html=1;" parent="1" vertex="1">
          <mxGeometry x="340" y="130" width="60" height="60" as="geometry" />
        </mxCell>
        <mxCell id="zXe6irOBKq1R8roTCVw2-52" style="edgeStyle=none;rounded=0;orthogonalLoop=1;jettySize=auto;html=1;exitX=0.75;exitY=1;exitDx=0;exitDy=0;entryX=0.817;entryY=-0.003;entryDx=0;entryDy=0;entryPerimeter=0;endArrow=none;endFill=0;strokeWidth=1;" parent="1" source="zXe6irOBKq1R8roTCVw2-14" target="zXe6irOBKq1R8roTCVw2-22" edge="1">
          <mxGeometry relative="1" as="geometry" />
        </mxCell>
        <mxCell id="zXe6irOBKq1R8roTCVw2-14" value="" style="rounded=1;whiteSpace=wrap;html=1;" parent="1" vertex="1">
          <mxGeometry x="317.5" y="140" width="60" height="60" as="geometry" />
        </mxCell>
        <mxCell id="zXe6irOBKq1R8roTCVw2-51" style="edgeStyle=none;rounded=0;orthogonalLoop=1;jettySize=auto;html=1;exitX=0.5;exitY=1;exitDx=0;exitDy=0;entryX=0.703;entryY=0.004;entryDx=0;entryDy=0;entryPerimeter=0;endArrow=none;endFill=0;strokeWidth=1;" parent="1" source="zXe6irOBKq1R8roTCVw2-15" target="zXe6irOBKq1R8roTCVw2-22" edge="1">
          <mxGeometry relative="1" as="geometry" />
        </mxCell>
        <mxCell id="zXe6irOBKq1R8roTCVw2-15" value="nginx" style="rounded=1;whiteSpace=wrap;html=1;" parent="1" vertex="1">
          <mxGeometry x="297.5" y="150" width="60" height="60" as="geometry" />
        </mxCell>
        <mxCell id="zXe6irOBKq1R8roTCVw2-19" value="Pod" style="text;html=1;strokeColor=none;fillColor=none;align=center;verticalAlign=middle;whiteSpace=wrap;rounded=0;" parent="1" vertex="1">
          <mxGeometry x="120" y="145" width="60" height="30" as="geometry" />
        </mxCell>
        <mxCell id="zXe6irOBKq1R8roTCVw2-20" value="Pod" style="text;html=1;strokeColor=none;fillColor=none;align=center;verticalAlign=middle;whiteSpace=wrap;rounded=0;" parent="1" vertex="1">
          <mxGeometry x="280" y="145" width="60" height="30" as="geometry" />
        </mxCell>
        <mxCell id="zXe6irOBKq1R8roTCVw2-22" value="deployment nginx" style="rounded=0;whiteSpace=wrap;html=1;fillColor=#dae8fc;strokeColor=#6c8ebf;" parent="1" vertex="1">
          <mxGeometry x="110" y="30" width="310" height="40" as="geometry" />
        </mxCell>
        <mxCell id="zXe6irOBKq1R8roTCVw2-54" style="edgeStyle=none;rounded=0;orthogonalLoop=1;jettySize=auto;html=1;exitX=0.5;exitY=1;exitDx=0;exitDy=0;endArrow=none;endFill=0;strokeWidth=1;" parent="1" source="zXe6irOBKq1R8roTCVw2-2" target="zXe6irOBKq1R8roTCVw2-2" edge="1">
          <mxGeometry relative="1" as="geometry" />
        </mxCell>
        <mxCell id="zXe6irOBKq1R8roTCVw2-57" value="Kubernetes" style="text;html=1;strokeColor=none;fillColor=none;align=center;verticalAlign=middle;whiteSpace=wrap;rounded=0;" parent="1" vertex="1">
          <mxGeometry x="100" y="-40" width="70" height="30" as="geometry" />
        </mxCell>
        <mxCell id="zXe6irOBKq1R8roTCVw2-58" value="" style="ellipse;whiteSpace=wrap;html=1;aspect=fixed;fillColor=#d5e8d4;strokeColor=#82b366;" parent="1" vertex="1">
          <mxGeometry x="225" y="260" width="80" height="80" as="geometry" />
        </mxCell>
        <mxCell id="zXe6irOBKq1R8roTCVw2-59" style="edgeStyle=none;rounded=0;orthogonalLoop=1;jettySize=auto;html=1;exitX=0;exitY=0;exitDx=0;exitDy=0;entryX=1;entryY=1;entryDx=0;entryDy=0;endArrow=none;endFill=0;strokeWidth=1;" parent="1" source="zXe6irOBKq1R8roTCVw2-58" target="zXe6irOBKq1R8roTCVw2-58" edge="1">
          <mxGeometry relative="1" as="geometry" />
        </mxCell>
        <mxCell id="zXe6irOBKq1R8roTCVw2-60" style="edgeStyle=none;rounded=0;orthogonalLoop=1;jettySize=auto;html=1;exitX=1;exitY=0;exitDx=0;exitDy=0;entryX=0;entryY=1;entryDx=0;entryDy=0;endArrow=none;endFill=0;strokeWidth=1;" parent="1" source="zXe6irOBKq1R8roTCVw2-58" target="zXe6irOBKq1R8roTCVw2-58" edge="1">
          <mxGeometry relative="1" as="geometry" />
        </mxCell>
        <mxCell id="zXe6irOBKq1R8roTCVw2-61" value="&lt;font style=&quot;font-size: 11px&quot;&gt;service&lt;/font&gt;" style="text;html=1;strokeColor=none;fillColor=default;align=center;verticalAlign=middle;whiteSpace=wrap;rounded=0;" parent="1" vertex="1">
          <mxGeometry x="244" y="294" width="45" height="15" as="geometry" />
        </mxCell>
        <mxCell id="zXe6irOBKq1R8roTCVw2-64" value="" style="shape=curlyBracket;whiteSpace=wrap;html=1;rounded=1;flipH=1;fontSize=11;direction=north;" parent="1" vertex="1">
          <mxGeometry x="120" y="220" width="290" height="40" as="geometry" />
        </mxCell>
        <mxCell id="zXe6irOBKq1R8roTCVw2-66" style="edgeStyle=none;rounded=0;orthogonalLoop=1;jettySize=auto;html=1;exitX=0.5;exitY=1;exitDx=0;exitDy=0;entryX=0.75;entryY=0;entryDx=0;entryDy=0;fontSize=11;endArrow=none;endFill=0;strokeWidth=1;" parent="1" source="zXe6irOBKq1R8roTCVw2-65" target="zXe6irOBKq1R8roTCVw2-22" edge="1">
          <mxGeometry relative="1" as="geometry" />
        </mxCell>
        <mxCell id="zXe6irOBKq1R8roTCVw2-65" value="Horizontal Pod Autoscale" style="rounded=0;whiteSpace=wrap;html=1;fontSize=11;fillColor=#fff2cc;strokeColor=#d6b656;" parent="1" vertex="1">
          <mxGeometry x="265" y="-30" width="155" height="40" as="geometry" />
        </mxCell>
        <mxCell id="zXe6irOBKq1R8roTCVw2-68" value="" style="endArrow=classic;html=1;rounded=0;fontSize=11;strokeWidth=1;exitX=0.5;exitY=1;exitDx=0;exitDy=0;" parent="1" source="zXe6irOBKq1R8roTCVw2-65" edge="1">
          <mxGeometry width="50" height="50" relative="1" as="geometry">
            <mxPoint x="340" y="240" as="sourcePoint" />
            <mxPoint x="343" y="30" as="targetPoint" />
          </mxGeometry>
        </mxCell>
        <mxCell id="zXe6irOBKq1R8roTCVw2-80" value="&lt;font style=&quot;font-size: 12px&quot;&gt;metric server&lt;/font&gt;" style="rounded=0;whiteSpace=wrap;html=1;fontSize=8;fillColor=none;" parent="1" vertex="1">
          <mxGeometry x="160" y="-10" width="75" height="20" as="geometry" />
        </mxCell>
        <mxCell id="zXe6irOBKq1R8roTCVw2-81" value="" style="endArrow=classic;html=1;rounded=0;fontSize=12;strokeWidth=1;exitX=1;exitY=0.5;exitDx=0;exitDy=0;entryX=0;entryY=0.75;entryDx=0;entryDy=0;" parent="1" source="zXe6irOBKq1R8roTCVw2-80" target="zXe6irOBKq1R8roTCVw2-65" edge="1">
          <mxGeometry width="50" height="50" relative="1" as="geometry">
            <mxPoint y="80" as="sourcePoint" />
            <mxPoint x="50" y="30" as="targetPoint" />
          </mxGeometry>
        </mxCell>
      </root>
    </mxGraphModel>
  </diagram>
</mxfile>
